#!OML:ASF F:\VICON\USERDATA\INSTALL\rory3\rory3.ASF
:FULLY-SPECIFIED
:DEGREES
214
root 0.483408 17.8509 11.4928 -3.12586 -3.659 -1.14281
lowerback 10.487 2.16319 2.06603
upperback -0.0782393 3.19164 1.00335
thorax -5.91018 1.52185 -0.601175
lowerneck -16.2297 -3.40669 -1.19019
upperneck 20.7779 -4.69471 1.12009
head 9.27568 -2.1602 -0.0131693
rclavicle -3.91109e-014 1.98785e-014
rhumerus -25.4069 -19.5719 -78.3709
rradius 26.2104
rwrist 3.78547
rhand -18.1571 21.0517
rfingers 7.12502
rthumb 8.11867 -8.77233
lclavicle -3.91109e-014 1.98785e-014
lhumerus -38.5887 5.35429 82.6729
lradius 23.0317
lwrist 4.13852
lhand -26.8033 22.6675
lfingers 7.12502
lthumb -0.230102 52.6471
rfemur -4.22946 1.73482 22.2734
rtibia 66.9119
rfoot 16.2484 -1.88276
rtoes 19.7338
lfemur -17.705 -2.33853 -22.7394
ltibia 31.0893
lfoot -7.93838 -3.71001
ltoes 2.32611
215
root 0.497047 17.8617 11.6832 -3.32361 -3.69178 -0.79034
lowerback 10.5551 2.10908 1.64482
upperback 0.0500749 3.06774 1.01763
thorax -5.83856 1.47486 -0.331659
lowerneck -16.3528 -3.33307 -1.38055
upperneck 20.5532 -4.55756 1.21564
head 9.22593 -2.10157 0.0681719
rclavicle -1.49213e-014 4.77083e-015
rhumerus -25.5113 -20.1132 -78.086
rradius 25.747
rwrist 4.48286
rhand -17.7819 17.2704
rfingers 7.12502
rthumb 8.48086 -12.5393
lclavicle -1.49213e-014 4.77083e-015
lhumerus -38.3246 5.30776 82.7434
lradius 23.1496
lwrist 4.39351
lhand -26.6933 22.655
lfingers 7.12502
lthumb -0.123889 52.6347
rfemur -5.54881 1.30779 21.7035
rtibia 69.0184
rfoot 15.6262 -2.71239
rtoes 21.4029
lfemur -16.7388 -2.34615 -23.282
ltibia 31.0815
lfoot -8.9417 -3.378
ltoes 1.05985
216
root 0.512754 17.8642 11.8721 -3.42189 -3.73246 -0.600902
lowerback 10.6487 2.08246 1.47166
upperback 0.072894 3.01146 0.997139
thorax -5.87567 1.45142 -0.250819
lowerneck -16.7092 -3.27465 -1.52251
upperneck 20.7725 -4.47712 1.37508
head 9.37448 -2.05251 0.148483
rclavicle -4.34158e-014 -1.82882e-014
rhumerus -25.7167 -21.1322 -77.6825
rradius 25.1439
rwrist 5.34035
rhand -17.3209 15.1253
rfingers 7.12502
rthumb 8.92571 -14.6659
lclavicle -4.34158e-014 -1.82882e-014
lhumerus -37.9989 5.02818 82.8119
lradius 23.0469
lwrist 4.43456
lhand -26.6455 23.2195
lfingers 7.12502
lthumb -0.0777008 53.1992
rfemur -6.95472 0.9049 21.3413
rtibia 70.9608
rfoot 13.1646 -3.68
rtoes 17.5343
lfemur -15.8688 -2.31358 -23.6503
ltibia 31.111
lfoot -9.69301 -2.99182
ltoes 0.713206
217
root 0.527728 17.8691 12.0543 -3.59834 -3.76295 -0.478788
lowerback 10.8454 2.0783 1.45161
upperback 0.0834277 3.00312 0.927012
thorax -5.97245 1.44558 -0.319314
lowerneck -16.4968 -3.23912 -1.41728
upperneck 20.562 -4.43666 1.30445
head 9.257 -2.03691 0.117517
rclavicle -1.05604e-015 -1.07344e-014
rhumerus -26.0437 -22.3572 -77.2096
rradius 24.4615
rwrist 6.3636
rhand -17.1419 15.5503
rfingers 7.12502
rthumb 9.09841 -14.2335
lclavicle -1.05604e-015 -1.07344e-014
lhumerus -37.6578 4.49388 82.8922
lradius 22.8883
lwrist 4.77126
lhand -26.7027 22.8073
lfingers 7.12502
lthumb -0.132935 52.787
rfemur -8.34976 0.52657 21.0951
rtibia 72.7246
rfoot 9.08309 -4.85712
rtoes 6.6569
lfemur -14.9989 -2.27013 -23.9234
ltibia 31.1394
lfoot -10.2303 -2.72743
ltoes 0.980759
218
root 0.539055 17.8777 12.2334 -3.70882 -3.78334 -0.377101
lowerback 10.9561 1.99949 1.30898
upperback 0.100556 2.88453 0.964026
thorax -6.02708 1.39143 -0.186045
lowerneck -16.0828 -3.19103 -1.34809
upperneck 20.1854 -4.34195 1.12264
head 9.04304 -2.01401 0.0663385
rclavicle -1.6114e-014 1.39149e-014
rhumerus -26.2543 -23.4071 -76.7119
rradius 23.693
rwrist 7.81635
rhand -17.5079 17.2597
rfingers 7.12502
rthumb 8.74528 -12.5391
lclavicle -1.6114e-014 1.39149e-014
lhumerus -37.3164 4.2178 82.9945
lradius 22.6666
lwrist 5.09933
lhand -26.9775 21.5737
lfingers 7.12502
lthumb -0.398324 51.5531
rfemur -9.81069 0.192913 20.928
rtibia 74.268
rfoot 7.345 -5.8741
rtoes 5.31968
lfemur -14.2028 -2.21864 -24.1493
ltibia 31.1093
lfoot -10.6618 -2.57178
ltoes 1.06552
219
root 0.54785 17.883 12.4112 -3.78346 -3.81069 -0.167198
lowerback 11.0181 1.87861 0.993259
upperback 0.10777 2.68763 1.01104
thorax -6.07298 1.30438 0.0693829
lowerneck -16.0215 -3.0405 -1.48893
upperneck 20.2044 -4.10515 1.1547
head 9.03925 -1.91102 0.130948
rclavicle -6.65121e-014 -1.03368e-014
rhumerus -26.4121 -24.5604 -76.1633
rradius 22.9623
rwrist 9.66212
rhand -17.8657 19.0861
rfingers 7.12502
rthumb 8.39997 -10.7269
lclavicle -6.65121e-014 -1.03368e-014
lhumerus -37.2373 3.99622 83.0876
lradius 22.8819
lwrist 5.46617
lhand -27.0035 21.7926
lfingers 7.12502
lthumb -0.423449 51.7719
rfemur -11.2656 -0.0836418 20.6431
rtibia 75.6295
rfoot 6.00639 -6.70835
rtoes 4.6899
lfemur -13.4167 -2.21746 -24.481
ltibia 30.9887
lfoot -11.0556 -2.3711
ltoes 1.32746
220
root 0.559466 17.8853 12.5945 -3.88875 -3.74299 -0.0180953
lowerback 10.8783 1.75599 0.842261
upperback 0.194192 2.50096 0.998243
thorax -5.90941 1.21838 0.176746
lowerneck -16.1576 -2.89072 -1.41191
upperneck 20.4376 -3.91274 1.1212
head 9.13959 -1.81635 0.127226
rclavicle -4.59068e-015 -5.96354e-015
rhumerus -26.5519 -25.7271 -75.7141
rradius 22.1378
rwrist 10.6092
rhand -17.8856 19.909
rfingers 7.12502
rthumb 8.38069 -9.90475
lclavicle -4.59068e-015 -5.96354e-015
lhumerus -37.1038 3.82933 82.9921
lradius 23.2798
lwrist 5.78412
lhand -26.9032 22.0714
lfingers 7.12502
lthumb -0.326593 52.0509
rfemur -12.5439 -0.416756 20.4041
rtibia 76.7224
rfoot 5.05186 -7.3161
rtoes 4.82514
lfemur -12.5361 -2.1531 -24.7802
ltibia 30.8259
lfoot -11.5291 -2.2467
ltoes 1.50933
221
root 0.573475 17.8848 12.7785 -3.96685 -3.52881 0.335925
lowerback 10.756 1.64107 0.519348
upperback 0.223515 2.30195 0.930774
thorax -5.81953 1.12946 0.323047
lowerneck -16.0459 -2.87253 -1.37566
upperneck 20.4852 -3.87263 1.0052
head 9.13162 -1.80827 0.0880491
rclavicle 3.00972e-014 1.98785e-014
rhumerus -26.8038 -26.6269 -75.2544
rradius 21.4135
rwrist 10.9898
rhand -17.9849 20.0574
rfingers 7.12502
rthumb 8.28491 -9.76017
lclavicle 3.00972e-014 1.98785e-014
lhumerus -36.7937 3.52795 83.0313
lradius 23.2968
lwrist 6.57348
lhand -27.6234 19.346
lfingers 7.12502
lthumb -1.02219 49.3233
rfemur -13.8054 -0.934855 19.8847
rtibia 77.6066
rfoot 4.00055 -7.53655
rtoes 4.31697
lfemur -11.6717 -2.18609 -25.3234
ltibia 30.6163
lfoot -11.9809 -2.17269
ltoes 1.44301
